<svg width="501" height="684" viewBox="0 0 501 684" fill="none" xmlns="http://www.w3.org/2000/svg">
<path fill-rule="evenodd" clip-rule="evenodd" d="M243.124 5.25C243.937 13.193 241.769 36.535 239.432 45C238.293 49.125 236.959 54.624 236.467 57.22C235.135 64.246 228.508 84.954 226.643 87.917C225.749 89.338 221.12 95.675 216.355 102C206.234 115.437 204.524 118.582 201.14 130C196.893 144.329 194.654 155.897 193.397 170C192.736 177.425 191.9 184.054 191.539 184.73C190.666 186.372 185.183 177.95 183.066 171.715C181.031 165.721 181.003 159.481 182.977 151.863C185.259 143.06 189.442 117.501 189.442 112.367C189.442 109.906 188.092 102.693 186.442 96.338C183.96 86.781 183.442 82.816 183.442 73.392V62L186.692 61.994C192.274 61.985 197.133 60.094 204.862 54.925C212.796 49.618 217.145 44.91 220.066 38.465C221.054 36.284 222.552 33.67 223.394 32.655C224.792 30.969 224.721 30.644 222.573 28.905C220.867 27.523 218.634 27 214.445 27C209.357 27 207.946 27.484 202.585 31.063C193.389 37.204 188.958 42.807 186.35 51.59C185.135 55.683 183.978 58.869 183.778 58.669C183.579 58.47 183.962 52.838 184.63 46.155C185.448 37.98 185.515 33.673 184.836 32.994C184.281 32.439 182.061 31.876 179.903 31.742L175.979 31.5L174.454 41.5L172.929 51.5L168.566 43.579C163.558 34.487 157.388 27.462 151.511 24.159C147.887 22.122 147.361 22.047 146.808 23.488C145.714 26.339 147.367 34.197 150.008 38.703C151.86 41.863 154.966 44.645 161.254 48.778C166.033 51.918 170.346 54.783 170.841 55.144C171.335 55.506 171.785 64.509 171.841 75.151L171.942 94.5L176.291 102.5L180.639 110.5L179.985 118.5C179.612 123.064 177.448 133.157 174.946 142C166.88 170.509 167.515 175.977 180.578 190.5C185.03 195.45 189.071 200.542 189.558 201.815C190.707 204.823 190.712 227 189.563 227C189.08 227 188.139 225.683 187.472 224.072C186.805 222.462 185.358 220.329 184.257 219.333C182.506 217.748 182.594 218.272 184.959 223.511C188.693 231.783 188.858 232.626 186.89 233.381C183.112 234.831 169.848 223.609 166.845 216.422C165.205 212.497 164.979 206 166.482 206C168.174 206 174.969 209.725 176.381 211.427C177.099 212.292 178.166 213 178.752 213C180.488 213 174.418 207.213 171.049 205.657C164.333 202.556 163.606 202.605 162.942 206.2C162.206 210.186 164.453 217.015 168.054 221.735C171.94 226.831 183.526 236 186.078 236C187.313 236 188.551 236.367 188.827 236.815C189.104 237.263 188.28 242.325 186.995 248.065C185.71 253.804 184.341 260.525 183.952 263C183.564 265.475 182.134 273.125 180.774 280C176.928 299.455 175.186 322.427 175.959 343.5C176.477 357.622 176.256 364.301 174.935 374.5C172.399 394.07 170.074 406.296 168.808 406.714C167.049 407.296 158.639 396.052 156.868 390.75C155.385 386.31 155.451 383.927 157.884 354.25C162.145 302.282 161.764 304.876 166.275 297.051C172.682 285.939 174.028 279.36 172.356 267.323C171.758 263.02 171.075 259.304 170.837 259.065C170.6 258.826 168.575 260.401 166.337 262.565C157.888 270.738 154.899 281.43 157.847 292.935C158.743 296.435 159.239 299.537 158.947 299.828C158.656 300.12 157.098 299.382 155.484 298.189C152.077 295.67 148.884 296.134 150.61 298.897C151.4 300.162 151.134 304.039 149.604 313.558C148.46 320.676 147.281 328.75 146.984 331.5C146.687 334.25 145.537 343.981 144.429 353.125C142.285 370.813 142.434 374.398 146.063 392.5C148.378 404.044 149.713 406.858 160.688 423.32L170.568 438.141L170.826 475.32C171.052 507.888 170.852 513.862 169.209 523.483C167.091 535.888 158.787 565.977 157.062 567.5C155.427 568.944 147.249 595.879 148.052 597.178C149.178 598.999 167.569 607.165 169.165 606.553C170.143 606.177 170.459 605.202 170.084 603.711C169.771 602.462 170.351 598.754 171.373 595.47C175.596 581.901 180.877 549.993 182.457 528.5C182.942 521.9 184.011 509.975 184.833 502C187.785 473.351 188.573 458.874 189.392 418.297L190.224 377.094L194.757 367.297C200.501 354.886 201.142 352.444 202.976 336C205.266 315.462 207.188 310.546 217.168 299.695C224.582 291.635 230.036 281.193 233.036 269.316L234.851 262.131L239.897 261.499C249.474 260.298 255.064 258.195 258.213 254.608C261.746 250.584 265.162 242.32 263.84 240.998C263.339 240.497 259.092 239.956 254.402 239.794C245.997 239.504 245.81 239.55 241.496 242.962C237.217 246.346 237.133 246.368 237.749 243.914C238.095 242.534 239.294 234.901 240.413 226.952C241.532 219.003 243.118 210.191 243.938 207.369C245.607 201.625 251.81 192.773 258.913 186C271.211 174.273 282.52 151.538 287.998 127.526C288.873 123.691 290.179 114.331 290.9 106.726C291.62 99.121 292.434 92.674 292.709 92.4C292.983 92.125 296.192 92.42 299.839 93.055C308.898 94.633 310.923 93.963 312.837 88.752C313.696 86.413 314.521 83.15 314.67 81.5C314.938 78.544 314.874 78.502 310.352 78.648C307.827 78.73 303.889 79.751 301.602 80.919C299.314 82.086 297.442 82.763 297.442 82.424C297.442 82.085 298.23 79.264 299.192 76.154C300.593 71.629 300.927 67.005 300.866 53C300.817 41.625 300.379 34.734 299.614 33.311C298.785 31.77 297.108 30.923 293.952 30.449C286.782 29.374 284.926 30.311 281.875 36.547C279.295 41.82 279.195 42.571 279.837 51.879C280.541 62.114 282.976 73.88 286.413 83.659C287.529 86.833 288.442 89.591 288.442 89.787C288.442 89.983 287.209 89.998 285.702 89.822L282.962 89.5L281.791 106C280.224 128.092 278.388 137.172 273.561 146.719C268.356 157.014 265.725 160.759 254.442 173.933L244.942 185.025L243.788 180.263C242.337 174.276 242.165 155.688 243.476 146.618C244.355 140.539 244.937 139.27 248.461 135.746C257.897 126.31 265.989 110.804 268.909 96.561C270.239 90.078 270.339 87.343 269.455 81.646C268.709 76.839 268.694 74.348 269.407 73.635C271.195 71.847 270.547 71 267.392 71C262.973 71 259.329 73.219 253.98 79.169C242.702 91.713 239.101 107.212 242.872 126.984C244.604 136.068 243.847 137.778 239.164 135.356C236.309 133.88 235.995 133.891 234.806 135.518C232.779 138.289 231.942 145.446 231.942 160C231.942 171.795 232.319 174.925 234.924 184.777L237.907 196.055L236.101 200.777C230.824 214.58 230.15 217.824 226.914 245C226.161 251.325 224.796 258.974 223.881 261.998C221.501 269.862 216.175 279.909 212.153 284.117C206.815 289.704 200.799 299.087 197.879 306.381C196.422 310.022 194.994 313 194.707 313C192.81 313 198.686 270.459 203.514 249.235C205.733 239.481 208.453 227.45 209.559 222.5C211.177 215.259 211.741 207.54 212.445 183C213.336 151.932 214.549 140.247 218.483 124.841C220.186 118.169 221.894 114.658 227.554 106.194C242.841 83.333 245.486 75.251 251.022 34.5C252.89 20.75 254.691 8.312 255.026 6.859C255.572 4.486 255.244 4.094 251.788 2.988C249.673 2.312 247.514 1.363 246.992 0.879C246.47 0.396 245.265 0 244.314 0C242.828 0 242.662 0.735 243.124 5.25ZM249.643 5.108C251.611 6.161 251.679 6.752 251.021 17.147C250.259 29.192 245.388 61.56 242.883 71.229C240.586 80.093 236.433 88.716 228.99 100.075C220.47 113.079 218.7 116.67 216.422 125.58C212.381 141.379 211.147 153.604 210.98 179.5C210.799 207.574 209.643 216.438 202.422 245.112C198.442 260.916 196.125 273.76 194.958 286.5C194.605 290.35 193.67 298.586 192.879 304.801C190.09 326.728 191.507 329.548 197.466 313.929C202.054 301.901 204.314 297.686 209.49 291.5C218.007 281.323 219.788 279.538 220.198 280.768C220.621 282.038 223.442 282.525 223.442 281.329C223.442 280.96 222.756 279.9 221.918 278.973C221.08 278.047 220.675 276.557 221.018 275.663C221.516 274.366 222.052 274.256 223.669 275.122C225.212 275.947 225.901 275.883 226.554 274.853C228.115 272.392 228.766 266.818 227.578 266.084C226.759 265.578 227.268 259.217 229.428 242.935C232.628 218.813 234.054 212.697 238.554 203.779C241.715 197.517 242.174 194.495 240.087 193.694C238.038 192.908 234.329 176.729 233.737 166C233.272 157.557 235.198 139.911 236.754 138.354C237.003 138.106 238.441 138.213 239.949 138.591C242.635 139.265 242.68 139.398 242.062 144.89C240.296 160.591 240.244 169.7 241.867 178.992C242.779 184.212 243.883 188.841 244.319 189.277C244.756 189.714 246.743 187.468 248.734 184.286C250.726 181.104 255.153 175.628 258.573 172.118C263.879 166.673 265.054 165.901 266.587 166.858C268.05 167.772 268.586 167.599 269.482 165.926C270.283 164.428 270.279 163.508 269.466 162.528C268.611 161.499 269.257 159.702 272.23 154.842C276.736 147.475 281.45 136.19 281.424 132.829C281.393 128.696 285.693 94.524 286.336 93.792C290.268 89.318 289.185 113.297 284.632 131.5C281.661 143.38 276.683 156.012 270.389 167.648C267.526 172.941 266.834 173.606 264.634 173.186C262.325 172.744 262.179 172.936 262.73 175.69C263.264 178.361 262.641 179.342 256.764 185.086C243.392 198.157 241.465 202.909 236.951 233.94C231.397 272.12 227.052 284.359 213.504 299.99C204.999 309.803 203.14 314.139 201.927 327C199.776 349.81 196.985 360.175 189.809 372C186.711 377.105 184.863 383.307 186.298 383.785C187.102 384.053 187.442 389.664 187.442 402.651C187.442 420.267 187.354 421.107 185.568 420.54C184.011 420.046 183.494 420.734 182.519 424.607C181.438 428.901 181.518 429.453 183.539 431.603C184.746 432.888 186.117 433.701 186.587 433.41C188.592 432.171 186.714 468.107 183.082 500.5C181.726 512.6 180.327 526.1 179.974 530.5C178.573 547.983 174.366 576.601 172.819 579.18C172.595 579.553 170.973 578.546 169.216 576.94C165.631 573.666 165.21 573.851 163.405 579.5C162.702 581.7 161.416 584.022 160.548 584.66C159.125 585.705 159.156 586.026 160.86 587.91C163.239 590.538 164.442 590.569 164.442 588C164.442 585.632 165.712 585.415 167.433 587.489C168.113 588.308 169.068 588.731 169.555 588.43C170.761 587.685 170.691 588.317 168.836 594.846C166.357 603.578 165.911 603.765 157.576 599.568C153.471 597.5 150.442 595.334 150.442 594.466C150.442 593.637 151.427 589.608 152.632 585.514C154.366 579.621 155.095 578.297 156.132 579.158C156.852 579.756 157.442 579.979 157.442 579.653C157.442 579.328 160.087 569.26 163.32 557.281C174.684 515.172 174.16 519.506 173.509 473C172.988 435.79 172.805 432.523 171.26 432.778C170.217 432.951 168.421 431.376 166.537 428.638C163.666 424.465 163.606 424.19 165.469 423.703C168.295 422.964 168.157 417.614 165.26 415.585C164.005 414.706 162.625 414.413 162.01 414.896C161.396 415.379 159.667 415.015 157.942 414.039C155.674 412.756 154.261 410.572 152.154 405.095C148.324 395.141 145.445 380.389 145.429 370.64C145.41 358.797 147.546 343.818 149.16 344.477C149.865 344.764 151.098 345.266 151.9 345.591C152.896 345.995 153.577 345.312 154.047 343.436C154.899 340.042 153.37 337.474 150.561 337.579C149.396 337.623 148.442 337.497 148.442 337.298C148.442 335.355 153.7 304.05 154.26 302.661C154.974 300.889 155.088 300.892 157.399 302.764L159.798 304.707L158.565 322.103C157.887 331.671 156.456 350.025 155.386 362.89C153.218 388.955 153.406 390.968 158.707 398.299C165.261 407.364 169.968 412.87 170.942 412.611C171.492 412.465 172.078 411.03 172.244 409.423C172.411 407.815 174.07 396.825 175.932 385C179.212 364.172 179.3 362.859 178.736 343C178.056 319.05 179.858 298.147 184.342 278C186.596 267.874 187.433 265.555 188.754 265.787C190.319 266.063 190.514 265.622 191.964 258.537C192.185 257.457 191.766 255.882 191.032 255.037C189.917 253.752 189.995 251.451 191.51 241C192.522 234.022 193.34 222.536 193.363 215L193.403 201.5L183.925 191.522C178.448 185.757 173.97 180.098 173.316 178.119C171.588 172.881 172.891 157.914 175.939 148C180.921 131.794 182.411 124.554 182.427 116.482C182.44 109.518 182.106 107.97 179.889 104.707C175.165 97.755 172.586 87.074 175.942 88.362C178.459 89.327 177.99 80.618 175.432 78.872C173.508 77.559 173.466 77.006 174.455 66C176.02 48.579 178.531 34 179.966 34C183.044 34 183.26 36.497 182.218 60C181.208 82.771 181.244 83.748 183.363 91.5C184.566 95.9 186.018 101.3 186.59 103.5C188.116 109.368 187.021 121.518 183.435 138.5C178.957 159.711 178.728 163.56 181.445 172.008C184.944 182.89 195.745 197.203 194.664 189.526C194.4 187.65 197.684 156.132 199.251 145.5C199.904 141.072 200.244 140.536 202.222 140.814C205.432 141.265 206.276 138.273 203.489 136.32C200.598 134.295 202.255 132.294 205.42 133.988C206.626 134.634 207.814 134.962 208.059 134.717C208.304 134.472 208.78 131.945 209.116 129.101C209.619 124.861 209.413 123.699 207.973 122.646C206.306 121.428 206.319 121.161 208.225 117.431C209.329 115.269 213.413 109.559 217.3 104.742C226.177 93.741 228.492 89.776 233.899 76.317C236.386 70.127 238.884 65.37 239.74 65.197C241.532 64.833 242.522 58.517 241.304 55.21C240.76 53.732 241.353 47.529 242.976 37.71C244.36 29.345 245.773 18.337 246.117 13.25C246.462 8.162 246.93 4 247.159 4C247.387 4 248.505 4.498 249.643 5.108ZM426.802 15.407C416.294 17.416 412.6 18.863 408.485 22.58C402.367 28.107 401.946 30.809 403.283 55.952C404.222 73.617 405.022 80.432 407.393 90.95C411.456 108.969 415.103 115.686 427.707 128.37C433.102 133.799 438.189 139.544 439.013 141.137C439.837 142.73 440.962 148.188 441.514 153.267C442.401 161.427 444.416 227.899 444.855 263.5L445.015 276.5L454.324 277.273C459.443 277.699 464.939 278.723 466.537 279.549C468.135 280.375 469.483 280.702 469.533 280.276C469.583 279.849 469.569 254.75 469.503 224.5C469.377 166.697 470.165 148.494 473.055 142.404C474.119 140.161 477.281 136.955 481.358 133.986C488.59 128.719 490.863 126.049 494.903 118.077C499.774 108.465 500.716 100.967 499.938 78C499.122 53.918 498.368 48.413 494.917 41.359C489.078 29.426 477.773 20.821 462.841 16.943C452.664 14.301 436.249 13.601 426.802 15.407ZM461.879 18.558C469.345 20.573 478.3 25.059 482.877 29.077C488.072 33.638 495.495 49.315 495.747 56.254C495.911 60.784 495.497 62.233 493.163 65.295C489.003 70.755 484.529 73.742 477.943 75.458C466.536 78.429 465.444 78.016 457.107 67.58C455.237 65.238 452.867 63.653 450.139 62.918C446.227 61.865 445.879 61.953 443.632 64.566C441.878 66.605 441.405 68.067 441.825 70.163C442.514 73.608 442.155 73.628 434.091 70.592C416.724 64.055 409.142 54.305 409.142 38.507C409.142 24.071 413.455 19.803 430.942 16.933C437.996 15.776 454.846 16.661 461.879 18.558ZM37.0728 21.702C35.8068 22.968 36.5358 26.295 41.3588 41.251C46.3148 56.619 50.8078 72.968 50.2328 73.542C50.0618 73.713 39.0188 75.319 25.6928 77.111C12.3668 78.902 0.895807 80.734 0.202807 81.18C-1.12219 82.034 3.55681 86.807 28.8618 110.418C35.8868 116.973 42.3448 123.825 43.2128 125.645C44.7258 128.819 44.5808 129.903 39.6548 152.227C34.9548 173.532 34.2848 175.689 31.7368 177.733L28.9528 179.965L31.6368 182.649L34.3198 185.333L34.9708 182.74C35.3288 181.314 36.3828 179.458 37.3128 178.617C39.7808 176.383 69.1378 160.111 74.6118 157.942L79.2818 156.092L79.8128 159.796C80.1058 161.833 80.6298 166.986 80.9788 171.247C81.8218 181.56 80.7408 183.837 73.0038 188.033C56.3338 197.077 50.0578 202.231 41.8678 213.607C31.1298 228.52 25.1448 250.808 26.8588 269.5C27.5168 276.673 33.2228 301.443 37.9158 317.5C41.9158 331.188 44.6428 348.837 44.2218 358.321C43.9778 363.81 42.4588 371.762 39.6038 382.5C35.6318 397.437 35.3498 399.364 35.3568 411.5C35.3648 423.405 37.6848 456.049 39.0678 463.702L39.6458 466.903L36.5818 465.747C33.4548 464.566 31.3248 465.289 33.0088 466.96C33.5218 467.469 39.7918 469.889 46.9418 472.337C68.8398 479.833 68.8418 479.833 67.8608 469.875C67.4848 466.057 67.5758 463 68.0658 463C68.5508 463 71.9788 463.867 75.6818 464.926C79.3858 465.985 82.6418 466.485 82.9188 466.038C83.1948 465.59 83.0128 461.911 82.5138 457.862C82.0138 453.813 81.0538 443.075 80.3788 434C78.9848 415.269 79.6848 407.095 83.9348 392.428C88.5058 376.654 89.6958 366.341 89.1188 347.5C88.5708 329.623 87.8258 324.144 81.4378 291C74.1378 253.125 73.0978 245.529 73.0178 229.5C72.9578 217.583 73.3218 213.269 74.7888 208.513C76.5748 202.722 81.2878 193.513 82.0668 194.291C82.2768 194.502 83.5518 206.559 84.9008 221.087C86.2488 235.614 88.0268 252 88.8508 257.5C90.2998 267.174 92.6378 286.625 93.9588 300C94.3118 303.575 95.0098 328.55 95.5098 355.5C96.2858 397.292 96.8288 408.545 99.2008 432L101.983 459.5L105.962 460.095C108.151 460.423 111.628 461.035 113.688 461.456L117.434 462.221L116.947 456.361C116.679 453.137 115.981 441.275 115.397 430C113.887 400.861 110.751 354.305 108.527 327.998C107.481 315.622 106.85 304.317 107.125 302.877C107.401 301.436 106.929 296.712 106.076 292.378C102.514 274.273 96.2658 212.3 96.3118 195.54C96.3398 185.593 96.0318 183.068 94.4838 180.54C93.4598 178.868 92.3288 174.8 91.9698 171.5C91.6108 168.2 91.0698 164.15 90.7668 162.5C90.3118 160.022 94.1588 163.499 112.895 182.5C125.368 195.15 135.786 205 136.045 204.388C136.304 203.776 134.467 195.451 131.962 185.888C129.457 176.325 126.444 164.722 125.265 160.104L123.123 151.709L126.533 148.825C128.408 147.24 137.054 140.893 145.747 134.721L161.552 123.5L158.975 121.445C157.558 120.315 147.596 114.736 136.838 109.047L117.278 98.704L117.918 89.102C118.271 83.821 119.5 71.175 120.65 61C123.308 37.489 123.435 32.653 121.406 32.245C119.533 31.868 105.39 43.764 92.2058 56.804L82.4708 66.434L78.3688 62.467C76.1118 60.285 66.7878 50.479 57.6478 40.675C41.3668 23.212 38.3478 20.427 37.0728 21.702ZM67.2888 53.453C77.7768 64.219 83.9558 69.876 84.2158 68.953C85.1658 65.587 117.099 36 119.783 36C120.959 36 120.467 44.082 117.931 66.399C116.562 78.444 115.442 90.23 115.442 92.59C115.442 94.951 114.994 97.159 114.446 97.498C113.818 97.885 114.013 99.204 114.971 101.057C116.585 104.177 117.988 104.811 118.719 102.75C119.37 100.915 157.442 120.72 157.442 122.894C157.442 123.337 153.505 126.315 148.692 129.511C136.673 137.493 120.442 150.233 120.442 151.684C120.442 152.341 123.403 163.52 127.022 176.526C130.642 189.531 133.417 200.358 133.19 200.585C132.963 200.812 126.671 194.586 119.208 186.749C91.5508 157.708 85.8008 152 84.2068 152C81.4068 152 70.5708 157.122 54.0458 166.255C45.3018 171.087 37.9688 174.86 37.7488 174.641C37.0148 173.907 46.5208 133.533 47.9368 131.37C49.2278 129.397 48.9008 128.731 43.5268 122.37C40.3338 118.591 32.4948 110.849 26.1068 105.164C14.7768 95.083 3.71881 83.39 4.64081 82.467C5.28781 81.82 28.7118 78.374 42.4418 76.906C48.7668 76.23 54.0838 75.571 54.2568 75.441C54.4298 75.311 52.5448 68.971 50.0688 61.352C45.1248 46.14 40.9718 32.157 40.0138 27.5C39.4398 24.708 39.7918 24.916 45.0838 30.5C48.2118 33.8 58.2038 44.129 67.2888 53.453ZM160.658 34.497C164.617 39.457 170.943 50.832 170.172 51.604C169.951 51.824 166.02 49.641 161.435 46.752C152.249 40.964 149.925 37.802 148.794 29.555L148.128 24.696L152.397 27.095C154.744 28.414 158.462 31.745 160.658 34.497ZM334.538 26.265C333.216 26.944 331.191 28.772 330.038 30.326C328.139 32.886 327.961 34.343 328.142 45.846C328.411 62.838 329.305 65.293 337.239 70.824C346.873 77.541 346.823 77.395 345.022 93.154C344.183 100.495 342.587 117.525 341.476 131C340.365 144.475 339.212 156.938 338.914 158.696C338.49 161.196 338.801 162.122 340.341 162.946C344.712 165.285 345.112 164.577 345.809 153.25C346.173 147.338 346.748 139.28 347.086 135.343L347.701 128.187L351.738 126.367C361.166 122.115 370.412 109.199 370.432 100.25C370.448 93.304 364.839 89.573 360.692 93.772C359.73 94.746 356.959 99.25 354.534 103.781C352.11 108.311 349.992 111.884 349.828 111.719C349.501 111.392 351.603 85.696 352 85.182C352.134 85.007 354.527 85.542 357.316 86.37C362.498 87.909 367.05 87.4 369.998 84.954C370.747 84.332 373.022 78.8 375.053 72.662C381.881 52.025 379.918 45.11 364.442 35.269C348.625 25.213 341.034 22.927 334.538 26.265ZM348.127 28.057C354.083 30.292 369.764 40.555 372.291 43.872C374.662 46.984 374.938 48.204 374.908 55.426C374.871 64.316 372.442 75.192 369.305 80.508C367.838 82.995 366.34 84.116 363.868 84.58C358.709 85.548 355.549 84.319 351.039 79.591C348.785 77.229 344.101 73.372 340.63 71.018C331.31 64.701 330.942 63.866 330.942 49.046C330.942 40.451 331.39 35.439 332.363 33.13C334.571 27.894 341.637 25.621 348.127 28.057ZM219.192 29.552C222.682 30.627 217.525 42.18 211.316 47.198C203.601 53.433 195.718 58.151 191.39 59.123C189.074 59.643 187.031 59.923 186.852 59.743C186.672 59.564 187.105 56.961 187.813 53.958C189.954 44.885 192.717 40.727 200.38 35.046C209.389 28.368 212.447 27.474 219.192 29.552ZM295.426 33.786C298.223 36.051 299.348 41.807 299.379 54C299.413 67.567 297.896 76.537 294.576 82.415C293.029 85.153 291.27 87.557 290.666 87.759C289.449 88.164 285.124 75.349 282.877 64.685C281.043 55.973 281.032 43.918 282.854 39.556C285.824 32.448 290.898 30.119 295.426 33.786ZM353.109 45.667C351.745 47.03 352.506 51.748 354.36 53.425C356.976 55.793 361.009 55.162 360.736 52.427C360.277 47.836 358.52 45 356.133 45C354.836 45 353.475 45.3 353.109 45.667ZM357.942 50C357.942 51.283 357.418 52.508 356.777 52.722C355.409 53.178 354.014 49.501 354.969 47.956C356.053 46.203 357.942 47.502 357.942 50ZM422.972 68.231C434.723 74.111 454.797 78.365 470.942 78.396C481.127 78.415 484.986 77.146 491.849 71.523L496.177 67.977L496.797 71.738C498.423 81.6 498.57 96.698 497.111 104C494.32 117.957 491.017 123.264 479.302 132.612C475.553 135.603 471.985 138.984 471.375 140.126C470.764 141.267 469.655 146.255 468.91 151.21C468.166 156.165 467.289 160.486 466.962 160.813C466.381 161.395 446.827 158.356 445.375 157.458C444.97 157.208 444.325 154.19 443.942 150.752C442.888 141.288 440.674 137.296 432.433 130C424.759 123.206 417.869 113.696 414.583 105.359C410.824 95.822 406.442 70.252 406.442 57.855V53.632L412.222 59.688C415.401 63.018 420.239 66.863 422.972 68.231ZM454.633 67.75C457.352 70.666 459.857 74.918 459.227 75.549C459.019 75.756 455.871 75.433 452.232 74.829C445.795 73.763 445.597 73.641 444.98 70.349C444.157 65.966 444.85 65 448.814 65C451.075 65 452.85 65.839 454.633 67.75ZM267.173 76.75C267.596 78.263 267.896 83.55 267.841 88.5C267.722 99 264.869 108.318 258.513 118.964C253.711 127.008 247.448 134.412 246.375 133.316C245.935 132.867 244.775 128.59 243.796 123.812C242.256 116.292 242.177 114.026 243.206 106.966C244.865 95.58 249.727 85.768 257.004 79.118C263.379 73.291 266.033 72.673 267.173 76.75ZM312.442 82.532C312.442 84.743 309.844 90.633 308.504 91.462C307.876 91.85 304.135 91.623 300.191 90.958L293.02 89.748L295.981 87.287C302.404 81.947 312.442 79.048 312.442 82.532ZM349.075 93.25C348.708 99.987 347.53 114.5 346.455 125.5C345.381 136.5 344.223 149.011 343.882 153.303C343.481 158.349 342.869 160.976 342.151 160.736C340.787 160.282 340.981 155.769 343.51 129C344.576 117.725 345.936 102.875 346.533 96C347.685 82.737 347.978 81 349.061 81C349.435 81 349.442 86.513 349.075 93.25ZM368.42 100.411C368.391 105.733 365.264 112.533 360.637 117.335C356.932 121.18 349.706 125.597 348.725 124.616C346.838 122.73 355.764 102.181 360.858 96.685C363.058 94.312 363.643 94.134 365.894 95.16C368.027 96.132 368.438 96.988 368.42 100.411ZM87.2378 156.255C87.8108 156.945 88.7938 161.332 89.4238 166.005C90.0528 170.677 90.8138 175.512 91.1138 176.75C91.6088 178.796 91.2998 179 87.6968 179H83.7348L83.0888 171.349C81.9578 157.973 82.1818 155 84.3198 155C85.3518 155 86.6658 155.565 87.2378 156.255ZM454.942 161.493C459.342 162.314 463.954 163.223 465.192 163.512L467.442 164.038L467.428 218.269C467.421 248.096 467.144 273.508 466.814 274.74C466.373 276.388 465.649 276.863 464.078 276.535C462.903 276.29 458.729 275.587 454.802 274.973L447.663 273.856L447.066 249.678C445.656 192.548 445.303 160 446.094 160C446.56 160 450.542 160.672 454.942 161.493ZM94.2578 185.25C94.4318 186.762 94.3188 188 94.0048 188C93.6918 188 91.2998 186.642 88.6888 184.981L83.9418 181.963L88.9418 182.231C93.5748 182.48 93.9648 182.702 94.2578 185.25ZM392.665 184.618C391.963 184.93 390.455 187.014 389.314 189.25C387.27 193.258 387.241 194.362 387.301 265.908C387.364 340.596 386.489 387.456 383.846 451C383.011 471.075 381.862 512.475 381.293 543C380.723 573.525 380.21 600.3 380.152 602.5C380.022 607.498 381.653 622.786 385.007 648C388.136 671.526 388.325 672.533 389.389 671.395C390.126 670.607 405.512 623.878 408.946 612C409.766 609.163 410.663 595.302 411.372 574.5C413.442 513.788 416.407 436.688 417.391 418C417.927 407.825 418.858 374.525 419.461 344C420.063 313.475 420.93 269.842 421.387 247.037C422.273 202.81 422.109 200.554 417.526 194.117C413.584 188.582 397.546 182.454 392.665 184.618ZM91.9418 189.615C95.4788 191.9 95.1568 194 91.2708 194C87.1898 194 84.4418 191.477 84.4418 187.73C84.4418 184.809 84.4748 184.791 86.9418 186.385C88.3168 187.273 90.5668 188.727 91.9418 189.615ZM406.442 188.084C412.01 190.608 415.075 193.405 417.539 198.21C419.704 202.431 419.905 205.761 418.341 211.5C416.409 218.588 410.463 223 402.842 223C395.657 223 389.442 212.744 389.442 200.887C389.442 187.575 395.408 183.082 406.442 188.084ZM299.995 188.25C299.783 188.938 299.601 190.175 299.59 191C299.579 191.825 298.896 197.9 298.072 204.5C296.39 217.967 293.004 251.315 291.473 269.5C290.917 276.1 290.458 290.387 290.452 301.25L290.442 321L294.293 324.851C296.412 326.97 301.587 330.337 305.793 332.333C310 334.33 313.52 336.534 313.616 337.232C313.712 337.929 313.892 372.475 314.017 414C314.152 458.545 314.693 494.42 315.336 501.5C315.937 508.1 316.886 522.275 317.446 533C318.437 551.962 319.386 563.514 321.39 581C321.926 585.675 322.837 597.15 323.416 606.5C324.441 623.053 325.111 631.747 327.572 660.364C328.631 672.69 329.037 674.554 331.229 677.158C335.336 682.04 340.382 684 348.843 684H356.323L354.889 681.25C353.154 677.925 353.022 673.82 354.6 672.242C355.409 671.433 355.445 670.696 354.717 669.792C352.914 667.551 350.5 653.127 348.896 635C348.045 625.375 346.006 605.575 344.365 591C339.845 550.838 338.524 537.167 337.416 519.059C336.859 509.952 335.533 492.375 334.469 480C330.829 437.653 329.959 417.152 330.207 379.579C330.341 359.272 330.684 342.424 330.969 342.139C331.254 341.854 334.547 342.606 338.286 343.811C347.133 346.66 349.021 346.575 352.425 343.171C357.045 338.551 357.714 334.364 360.449 293C362.131 267.557 367.224 218.712 368.563 215.185C369.666 212.279 369.653 210.881 368.503 209.064C367.726 207.837 367.352 207.83 365.921 209.017C364.477 210.216 364.118 210.173 363.296 208.703C361.597 205.667 360.599 206.882 359.97 212.75C359.631 215.912 358.941 221.2 358.438 224.5C357.934 227.8 355.913 249.4 353.946 272.5C348.951 331.17 349.839 325 346.393 325C344.441 325 342.979 324.223 341.936 322.631C340.52 320.471 340.609 318.067 342.945 295.381C346.424 261.589 349.19 238.125 351.595 222C354.359 203.471 354.359 204.455 351.6 204.755C349.969 204.932 349.098 204.4 348.733 203.005C348.445 201.902 347.867 201 347.45 201C346.356 201 345.652 205.252 343.919 222.337C343.073 230.677 341.727 240.875 340.928 245C339.531 252.216 335.859 282.011 333.411 306C332.765 312.325 332.032 317.837 331.78 318.25C330.996 319.539 328.756 319.075 326.346 317.123L324.028 315.246L325.283 298.373C326.51 281.873 331.406 240.89 335.359 214.028C337.371 200.359 337.231 199.06 333.742 199.015C333.082 199.007 332.103 198.216 331.567 197.258C331.031 196.3 330.316 195.793 329.979 196.13C329.641 196.467 327.822 208.164 325.935 222.122C324.048 236.08 321.577 253.8 320.443 261.5C319.31 269.2 317.603 283.564 316.65 293.421C315.634 303.937 314.469 311.491 313.831 311.704C313.234 311.903 311.678 311.202 310.374 310.146C308.306 308.472 308.032 307.476 308.233 302.363C308.57 293.767 315.885 238.723 319.842 215.009C321.723 203.738 323.036 194.152 322.76 193.706C322.484 193.26 321.737 193.084 321.1 193.317C320.463 193.549 319.152 193.051 318.186 192.209C317.22 191.367 316.263 190.864 316.058 191.089C315.854 191.315 314.931 198.25 314.008 206.5C313.084 214.75 310.584 233.875 308.452 249C306.32 264.125 304.046 283.025 303.398 291C302.055 307.519 301.902 308.32 300.191 307.75C296.114 306.393 297.198 280.555 303.434 230.5C308.281 191.593 308.345 189.733 304.895 188.161C301.634 186.675 300.473 186.696 299.995 188.25ZM80.4418 189.826C80.4418 190.28 77.9798 193.901 74.9698 197.874C68.1798 206.836 63.9678 215.541 61.2838 226.154C59.4868 233.257 59.2768 236.45 59.6818 250.417C60.1048 264.986 60.6308 268.76 65.2738 290.5C72.6358 324.97 73.6648 332.246 73.6868 350C73.7128 371.203 72.1368 383.178 66.8938 401.614C63.1688 414.712 62.4438 418.673 62.4538 425.883C62.4648 434.357 64.6588 461.273 66.0408 469.903L66.7458 474.305L60.8438 473.753C52.7158 472.992 42.9028 468.605 41.6128 465.155C39.9078 460.595 37.1758 430.133 37.2038 416C37.2328 401.738 38.0868 396.708 44.5028 373C49.0958 356.028 48.4748 350.216 37.6668 309C35.4318 300.475 32.3708 287.446 30.8658 280.047C28.2678 267.278 28.1888 266.077 29.3088 256.441C30.8468 243.209 33.6488 233.325 38.4968 224.027C46.6048 208.479 55.5768 199.778 70.4418 193.045C79.7418 188.833 80.4418 188.608 80.4418 189.826ZM304.424 203.124C303.82 209.381 301.745 227.775 299.812 244C296.339 273.16 294.96 301.002 296.683 307.14C297.565 310.277 299.854 311.385 302.514 309.961C304.084 309.121 304.442 307.832 304.442 303.018C304.442 299.767 305.795 287.207 307.45 275.107C309.104 263.006 311.817 241.72 313.478 227.803C317.177 196.826 317.322 196 319.053 196C319.817 196 320.442 196.196 320.442 196.436C320.442 196.676 318.89 206.914 316.993 219.186C313.917 239.083 310.805 262.189 307.117 292.5C305.306 307.391 306.386 311.169 313.276 314.041C316.661 315.452 317.442 314.488 317.442 308.898C317.442 299.254 321.285 266.424 324.922 245C326.182 237.575 328.03 224.855 329.029 216.734C330.96 201.028 331.594 198.752 333.507 200.665C334.743 201.901 331.802 232.655 328.933 248.5C327.335 257.325 323.851 289.906 322.816 305.704C322.165 315.646 322.195 315.844 324.753 318.402C327.366 321.015 332.715 321.985 333.905 320.06C334.224 319.544 335.599 307.646 336.959 293.621C338.32 279.595 340.52 261.231 341.848 252.81C343.177 244.39 345.047 230.622 346.005 222.215C347.653 207.755 348.54 204.633 350.43 206.637C350.878 207.112 350.191 216.05 348.904 226.5C346.466 246.296 339.945 303.679 338.842 315.057C338.264 321.015 338.422 321.86 340.574 324.308C343.594 327.744 348.493 328.806 350.778 326.521C352.061 325.238 352.442 322.968 352.442 316.602C352.442 312.062 352.888 303.657 353.433 297.924C353.979 292.191 355.566 275.125 356.961 260C359.963 227.447 362.331 210.489 363.686 211.844C364.95 213.108 364.2 227.928 361.63 252.5C360.479 263.5 359.043 280.375 358.437 290C356.295 324.059 354.261 335.086 349.059 340.842C346.472 343.705 342.815 343.442 333.637 339.735C330.219 338.354 327.314 337.511 327.182 337.862C327.05 338.213 327.21 357.4 327.537 380.5C328.131 422.456 329.661 459.514 331.5 476.5C332.036 481.45 333.131 495.4 333.932 507.5C335.23 527.107 337.628 552.038 340.473 575.5C342.495 592.18 345.503 622.187 346.939 640C347.76 650.175 348.682 659.98 348.989 661.788L349.547 665.076L344.244 662.114C341.328 660.484 336.863 658.85 334.321 658.481L329.701 657.812L328.583 644.156C327.968 636.645 326.982 622.85 326.392 613.5C325.801 604.15 324.651 590.425 323.835 583C323.019 575.575 321.718 558.7 320.945 545.5C320.171 532.3 319.084 516.55 318.529 510.5C316.581 489.29 315.349 418.067 316.401 387.5C316.95 371.55 317.408 352.988 317.42 346.25C317.441 334.602 317.342 334 315.414 334C312.507 334 299.2 327.495 296.891 324.945C295.179 323.054 294.832 320.458 294.035 303.604C293.21 286.138 293.372 281.859 295.844 255.957C298.423 228.937 302.978 193.561 304.115 191.72C305.378 189.676 305.454 192.465 304.424 203.124ZM200.119 192.75C199.876 193.162 199.378 194.897 199.012 196.604C198.451 199.221 198.751 199.972 200.923 201.396C204.155 203.513 205.038 202.967 205.912 198.309C206.463 195.369 206.239 194.325 204.834 193.297C202.856 191.851 200.789 191.611 200.119 192.75ZM89.4418 196.373L93.9418 197.716L98.5198 244.108C101.037 269.624 103.662 296.35 104.352 303.5C105.043 310.65 105.999 320.557 106.477 325.517C109.195 353.701 112.373 402.988 114.046 442.906L114.734 459.312L109.892 458.648C107.229 458.283 104.752 457.502 104.388 456.912C102.195 453.364 97.4508 389.096 97.4188 362.5C97.3648 318.607 95.2008 285.889 89.3808 241C87.8998 229.581 84.5198 194.868 84.9028 195.015C84.9238 195.024 86.9668 195.635 89.4418 196.373ZM73.0638 205.542C72.7388 206.39 71.9828 211.113 71.3838 216.037C69.8858 228.356 71.3718 244.108 76.8668 274.166C87.2588 331.013 86.9258 328.416 86.8998 352.5L86.8768 374.5L82.6588 390.187C77.8318 408.143 77.5488 413.145 79.6008 444.252C80.2448 454.015 80.5078 462.268 80.1848 462.591C79.3418 463.434 68.5908 460.885 67.5188 459.588C66.3298 458.15 64.3278 437.429 64.1958 425.206C64.1018 416.399 64.4748 414.319 68.2258 402.752C73.5088 386.459 75.4418 373.31 75.4418 353.673C75.4418 331.659 73.8808 320.797 64.9038 280.35C60.0678 258.565 59.8978 235.49 64.4708 221.913C66.7358 215.19 72.1028 204 73.0628 204C73.3888 204 73.3898 204.694 73.0638 205.542ZM200.442 204.809C200.442 205.254 201.087 206.491 201.875 207.559C203.021 209.112 203.56 209.251 204.571 208.254C205.587 207.251 205.454 206.719 203.888 205.536C201.694 203.876 200.442 203.612 200.442 204.809ZM397.462 223.248C403.639 226.352 412.402 225.246 417.192 220.759L419.442 218.651V230.826C419.442 239.911 419.125 242.994 418.192 242.977C415.147 242.921 391.439 239.116 390.493 238.532C389.856 238.138 389.442 233.316 389.442 226.293V214.704L391.712 218.102C392.96 219.971 395.548 222.287 397.462 223.248ZM256.723 241.986C261.485 242.004 262.285 243.804 259.891 249.113C257.042 255.432 252.319 257.893 240.192 259.38C234.927 260.025 234.804 259.839 236.486 253.781C238.422 246.809 246.036 240.341 250.942 241.5C252.042 241.76 254.644 241.979 256.723 241.986ZM405.942 243.31L418.942 245.5L418.641 250.968C418.475 253.975 418.25 256.518 418.141 256.619C418.032 256.72 414.792 256.217 410.942 255.502C407.092 254.787 400.68 253.666 396.692 253.011C389.928 251.899 389.442 251.651 389.442 249.303C389.442 247.467 389.851 246.943 390.954 247.366C391.786 247.686 397.524 248.43 403.704 249.02C409.885 249.61 415.49 250.277 416.16 250.503C416.83 250.728 417.644 250.482 417.969 249.956C418.294 249.43 418.421 248.964 418.251 248.919C418.081 248.875 411.648 247.863 403.955 246.669C392.47 244.888 389.909 244.187 389.632 242.75C389.209 240.553 389.673 240.569 405.942 243.31ZM404.942 256.337C417.912 258.544 417.943 258.555 418.272 261.418C418.597 264.236 418.534 264.275 414.772 263.587C412.666 263.202 406.217 262.1 400.442 261.138C390.293 259.448 389.931 259.299 389.626 256.695C389.249 253.486 388.317 253.508 404.942 256.337ZM405.442 264.033C412.317 265.244 418.257 266.519 418.642 266.867C419.027 267.215 418.9 280.55 418.358 296.5C417.817 312.45 417.185 340.8 416.954 359.5C416.722 378.2 415.835 407.45 414.983 424.5C414.131 441.55 412.982 470.35 412.429 488.5C411.447 520.745 410.226 553.042 408.826 583.794C408.343 594.422 407.812 598.77 407.086 598.044C405.644 596.602 401.698 596.732 401.196 598.238C400.87 599.215 400.221 599.22 398.124 598.265C396.662 597.599 394.759 597.325 393.894 597.657C392.941 598.022 391.205 597.189 389.484 595.54C387.033 593.192 386.345 592.982 384.443 594L382.24 595.179L382.887 579.339C383.243 570.628 383.97 538.75 384.502 508.5C385.034 478.25 386.151 441.575 386.984 427C387.891 411.129 388.745 372.514 389.115 330.728C389.675 267.341 389.878 260.997 391.336 261.394C392.22 261.635 398.567 262.822 405.442 264.033ZM170.917 274.3C170.896 282.252 170.508 284.341 168.054 289.697C166.493 293.106 164.441 296.596 163.493 297.454C161.91 298.886 161.664 298.789 160.481 296.257C158.222 291.422 157.946 280.587 159.949 275.343C162.206 269.433 168.298 262.456 169.848 264.006C170.485 264.643 170.932 268.94 170.917 274.3ZM189.615 273.659C190.036 275.848 192.942 276.157 192.942 274.014C192.942 273.196 192.114 272.368 191.101 272.173C189.765 271.916 189.358 272.323 189.615 273.659ZM235.456 341.217C232.762 345.648 232.58 347.793 231.54 387.5C230.957 409.762 230.196 423.592 229.449 425.5C228.799 427.161 227.894 438.1 227.422 450C226.328 477.589 225.366 490 224.324 490C223.866 490 223.753 491.305 224.072 492.9C224.391 494.496 223.731 504.733 222.605 515.65C219.955 541.344 217.568 568.321 216.572 583.837C216.001 592.72 215.382 596.425 214.361 597.071C213.183 597.817 213.176 597.972 214.322 597.985C215.454 597.997 215.61 600.481 215.191 611.75L214.678 625.5L218.588 637.675C223.503 652.977 225.137 654.876 236.504 658.496C251.939 663.412 268.396 662.843 273.693 657.21C277.67 652.981 282.442 640.676 282.443 634.645C282.444 631.815 283.091 625.826 283.882 621.336C284.921 615.432 285.155 609.134 284.727 598.586C284.195 585.45 284.301 584 285.789 584C287.835 584 287.948 582.383 285.979 581.281C284.849 580.648 284.388 577.278 283.952 566.481C283.642 558.791 283.163 549.688 282.888 546.25C282.408 540.271 282.485 539.999 284.664 539.978L286.942 539.956L284.842 538.228C282.947 536.67 282.527 534.193 280.56 513C279.36 500.075 278.145 486.575 277.859 483C277.573 479.425 277.129 475.488 276.872 474.25C276.528 472.595 276.872 471.992 278.173 471.968C279.82 471.939 279.826 471.848 278.26 470.657C275.138 468.285 270.052 430.477 272.639 428.878C273.531 428.327 273.515 427.792 272.573 426.658C271.817 425.747 270.767 417.807 269.884 406.332C269.088 395.974 267.953 384.125 267.363 380C266.772 375.875 265.914 369.662 265.456 366.194C264.607 359.773 261.126 351.411 257.253 346.487C254.719 343.265 244.128 338.002 240.177 338.001C238.136 338 236.901 338.841 235.456 341.217ZM191.109 340.667C189.474 342.302 190.541 347.744 192.938 349.996C195.903 352.782 196.441 352.427 197.139 347.219C197.587 343.885 197.306 343.018 195.333 341.636C192.755 339.831 192.096 339.679 191.109 340.667ZM247.983 342.367C257.214 346.665 262.524 355.321 263.235 367.23L263.697 374.959L254.851 371.969C249.985 370.325 245.551 369.13 244.996 369.315C244.051 369.63 259.687 376 261.405 376C261.841 376 262.74 376.655 263.405 377.455C264.8 379.137 268.366 408.239 268.411 418.317C268.438 424.353 268.241 425.074 266.692 424.606C256.55 421.538 235.974 416.135 235.653 416.455C234.85 417.259 245.425 422.001 248.159 422.062C249.69 422.097 254.992 423.337 259.942 424.818L268.942 427.512L269.718 439.506C270.145 446.103 271.189 455.031 272.038 459.347C272.887 463.663 273.373 467.403 273.117 467.658C272.862 467.913 264.663 465.605 254.897 462.528C245.131 459.451 236.682 457.087 236.121 457.274C235.56 457.461 243.39 460.462 253.521 463.944C263.653 467.425 272.461 470.774 273.096 471.387C274.104 472.36 274.982 481.221 278.876 529.75C279.108 532.638 278.986 535 278.605 535C278.224 535 269.641 531.841 259.531 527.98C249.421 524.119 240.921 521.188 240.642 521.467C239.996 522.112 248.422 525.841 264.942 532.22C272.092 534.98 278.503 537.762 279.188 538.401C280.051 539.206 280.666 545.784 281.188 559.782C281.603 570.903 281.718 580.001 281.443 580.001C281.169 580 273.36 578.621 264.09 576.936C254.821 575.251 247.015 574.094 246.743 574.365C245.98 575.128 258.854 578.614 269.83 580.615C275.268 581.607 280.331 583.032 281.08 583.781C282.02 584.72 282.443 587.835 282.445 593.821C282.45 606.181 280.386 634.334 279.399 635.387C278.921 635.897 275.032 635.182 270.255 633.706C254.442 628.82 236.171 623.924 235.092 624.283C234.079 624.621 240.788 626.856 267.942 635.23C278.693 638.545 278.935 638.685 278.64 641.401C278.474 642.93 277.124 646.7 275.64 649.78C272.251 656.815 268.187 659.126 258.077 659.768C252.491 660.122 248.919 659.665 241.621 657.661C230.084 654.493 226.555 652.479 223.738 647.458C219.313 639.569 217.442 629.572 217.442 613.82V599.276L243.643 607.155C258.053 611.488 270.316 614.865 270.893 614.659C272.778 613.988 265.329 611.445 241.066 604.473L217.19 597.612L217.73 588.556C218.233 580.12 220.816 552.907 222.03 543.25C222.324 540.913 222.843 539 223.183 539C223.523 539 232.768 541.272 243.728 544.048C254.688 546.824 264.17 548.913 264.798 548.689C266.242 548.176 255.24 544.867 240.942 541.513C220.757 536.779 222.342 537.557 223.019 532.71C223.343 530.394 224.065 527.15 224.625 525.5C225.184 523.85 225.839 517.325 226.079 511C226.319 504.675 226.836 498.08 227.229 496.344L227.942 493.188L246.322 501.13C256.431 505.499 264.981 508.77 265.322 508.4C265.663 508.029 265.492 507.549 264.942 507.332C264.392 507.116 255.842 503.449 245.942 499.185L227.942 491.431L228.072 487.966C228.803 468.418 230.6 439.295 231.371 434.5C231.902 431.2 232.309 424.9 232.277 420.5C232.169 405.951 234.552 352.59 235.534 347.568C237.168 339.217 239.302 338.325 247.983 342.367ZM442.442 349.364C442.442 354.673 442.584 354.99 445.192 355.504C446.704 355.803 452.357 357.424 457.752 359.108C468.968 362.608 468.795 362.397 470.345 374.5C471.48 383.362 472.807 441.382 471.82 439C469.256 432.811 467.6 430.604 462.79 426.973C457.426 422.923 453.453 417.878 453.446 415.105C453.443 413.997 454.743 413.832 459.793 414.304C474.371 415.665 474.236 407.679 459.476 395.467C455.115 391.86 451.242 387.944 450.868 386.766C449.934 383.823 453.114 381.426 459.156 380.52C465.848 379.517 467.442 378.449 467.442 374.968C467.442 370.707 461.518 364.616 453.785 360.925C443.789 356.154 442.725 357.545 451.198 364.305C455.182 367.484 458.442 370.752 458.442 371.567C458.442 373.303 454.51 375 450.488 375C448.934 375 446.628 375.838 445.363 376.863C443.15 378.655 443.11 378.94 444.326 384.374C445.747 390.722 449.321 395.634 453.916 397.553C457.907 399.221 460.714 402.38 460.244 404.676C459.931 406.203 459.029 406.455 454.705 406.225C448.649 405.902 447.439 407.229 447.447 414.184C447.454 419.934 449.738 423.35 456.942 428.389C461.509 431.583 462.942 433.173 462.942 435.043C462.942 437.362 462.561 437.528 456.154 438C448.362 438.574 447.478 439.387 447.461 446C447.446 451.743 449.616 455.275 457.333 462.068C462.03 466.202 463.442 468.081 463.442 470.197C463.442 472.778 463.239 472.907 460.192 472.259C452.92 470.713 451.077 471.224 449.068 475.338C447.329 478.897 446.955 479.131 443.908 478.56L440.623 477.943L440.282 493.634C440.095 502.264 440.237 513.414 440.598 518.412C440.959 523.411 441.296 544.857 441.348 566.071L441.442 604.641L444.192 610.071C446.323 614.277 448.107 616.194 452.115 618.581C458.595 622.44 476.499 628.576 478.755 627.71C479.824 627.3 480.442 625.953 480.442 624.031C480.442 621.697 480.889 621 482.383 621C483.451 621 484.613 620.532 484.967 619.96C487.125 616.468 490.404 397.855 488.745 368.106C488.119 356.88 487.612 353.549 486.442 352.975C485.617 352.57 476.392 350.606 465.942 348.61C455.492 346.614 445.93 344.708 444.692 344.374C442.554 343.797 442.442 344.046 442.442 349.364ZM464.353 350.45C473.928 352.343 482.401 354.53 483.18 355.309C485.33 357.459 486.134 371.907 486.557 416C487.057 467.97 487.076 465.674 485.574 532C484.056 599.02 483.318 616.215 481.942 616.67C481.28 616.89 481.226 611.406 481.783 600.432C482.246 591.319 482.365 582.83 482.048 581.567C481.599 579.778 480.186 578.911 475.641 577.636C467.407 575.325 467.442 575.311 467.442 581C467.442 585.333 467.175 586 465.442 586C458.94 586 455.238 572.37 459.332 563.5C462.615 556.387 467.913 553 475.757 553L479.942 553.001L479.192 535.861C478.608 522.531 478.112 518.473 476.959 517.61C475.683 516.654 475.382 505.965 474.796 440.718C474.329 388.68 473.775 364.495 473.029 363.528C471.919 362.091 451.549 354 449.04 354C448.279 354 447.383 353.288 447.049 352.418C446.454 350.868 446.199 346.996 446.692 347.004C446.829 347.006 454.777 348.557 464.353 350.45ZM150.442 351C150.442 352.111 151.109 353 151.942 353C152.775 353 153.442 352.111 153.442 351C153.442 349.889 152.775 349 151.942 349C151.109 349 150.442 349.889 150.442 351ZM187.442 354.804C187.442 357.569 190.158 359.684 191.712 358.13C192.578 357.264 192.605 356.481 191.812 355.222C190.222 352.697 187.442 352.431 187.442 354.804ZM461.91 369.5C466.504 375.663 465.706 377.991 458.992 378.014C452.813 378.034 450.716 378.923 449.411 382.076C447.678 386.258 448.892 389.453 453.635 393.199C470.379 406.42 472.183 413.512 458.486 412.27C454.162 411.878 452.587 412.121 451.58 413.333C449.089 416.335 453.131 422.626 461.056 428.078C465.813 431.351 468.442 435.413 468.442 439.49C468.442 442.05 468.361 442.077 461.532 441.843C456.967 441.686 454.083 442.053 453.032 442.925C449.212 446.096 452.461 453.469 461.485 462.108C467.524 467.89 468.442 469.235 468.442 472.301C468.442 476.441 467.615 476.871 461.503 475.903C455.827 475.005 452.478 476.789 452.363 480.773L452.284 483.5L451.33 480.901C450.712 479.218 450.733 477.364 451.39 475.637C452.338 473.144 452.682 473.017 456.673 473.684C464.926 475.065 465.91 474.827 466.246 471.374C466.515 468.613 465.736 467.523 459.574 462.048C452.412 455.682 449.442 450.697 449.442 445.039C449.442 441.253 450.602 440.603 458.442 440L464.942 439.5V436.057C464.942 432.991 464.151 431.971 457.729 426.763C449.992 420.489 448.113 416.634 450.092 411.098C450.929 408.755 451.459 408.53 455.481 408.802C461.551 409.213 464.058 407.355 462.753 403.413C462.222 401.811 460.248 399.519 458.365 398.321C449.312 392.558 446.463 388.383 446.448 380.857C446.441 377.826 447.956 377 453.524 377C457.426 377 461.442 374.386 461.442 371.845C461.442 371.21 459.529 368.869 457.192 366.644C453.11 362.757 453.075 362.674 456.308 364.548C458.159 365.622 460.68 367.85 461.91 369.5ZM235.992 375.924C237.418 377.311 258.442 383.917 258.442 382.978C258.442 382.225 238.11 375 235.99 375C235.394 375 235.395 375.343 235.992 375.924ZM235.942 428.793C236.912 429.847 261.732 439 263.621 439C266.848 439 261.714 436.592 250.682 432.932C243.675 430.608 237.267 428.481 236.442 428.206C235.403 427.859 235.25 428.04 235.942 428.793ZM178.137 435.354C177.296 437.543 180.005 440.797 181.468 439.356C182.107 438.727 182.47 437.382 182.274 436.368C181.836 434.092 178.897 433.372 178.137 435.354ZM471.828 447.92C472.781 453.679 472.399 475.187 471.418 471.014C470.944 468.999 469.195 466.324 467.27 464.673C456.641 455.553 452.569 449.5 454.561 445.778C455.394 444.221 456.692 443.981 463.386 444.146L471.235 444.339L471.828 447.92ZM472.315 495.5C472.36 504.817 472.27 505.285 470.992 502.347C470.238 500.614 467.107 497.338 464.036 495.069C457.832 490.486 455.762 487.849 454.87 483.392C453.981 478.946 456.175 477.576 462.915 478.368C466.947 478.842 468.691 478.645 469.649 477.61C470.726 476.445 471.053 476.988 471.604 480.856C471.969 483.41 472.289 490 472.315 495.5ZM174.442 481.277C174.442 484.347 177.132 488 179.392 488C183.27 488 182.614 482.233 178.485 480.023C175.543 478.448 174.442 478.79 174.442 481.277ZM448.812 484.25C449.143 485.488 449.421 492.042 449.428 498.816C449.436 505.589 449.873 511.937 450.4 512.921C451.076 514.184 454.067 515.261 460.571 516.581C466.422 517.769 470.424 519.138 471.537 520.332C472.5 521.366 473.722 521.945 474.252 521.618C475.842 520.635 476.414 524.853 476.428 537.667L476.442 549.834L471.245 550.949C461.129 553.118 455.442 560.667 455.442 571.924C455.442 581.375 457.141 584.361 464.314 587.517C469.818 589.938 470.442 589.58 470.442 584C470.442 578.467 470.92 578.184 476.113 580.648L479.587 582.297L478.897 595.898C478.518 603.379 477.923 613.1 477.575 617.5C476.957 625.307 476.882 625.493 474.442 625.195C468.823 624.509 456.067 619.596 452.139 616.604C445.081 611.229 445.255 612.947 444.745 543.75C444.296 482.934 444.319 482 446.249 482C447.436 482 448.446 482.887 448.812 484.25ZM453.931 487.98C454.779 489.618 458.053 492.855 461.207 495.173C464.361 497.49 467.49 500.087 468.16 500.943C469.879 503.14 469.728 507.571 467.871 509.429C465.928 511.371 465.281 511.377 460.788 509.5C458.813 508.675 456.128 508 454.82 508C453.512 508 452.442 507.577 452.442 507.059C452.442 505.161 454.402 505.01 458.961 506.558C464.518 508.444 466.442 507.934 466.442 504.573C466.442 502.085 462.265 497.183 455.729 492C453.996 490.625 452.291 488.488 451.942 487.25C451.044 484.068 452.111 484.459 453.931 487.98ZM110.557 487.667C109.245 487.946 106.056 490.29 103.47 492.876C98.9968 497.35 98.7368 497.917 98.1218 504.539C97.2808 513.585 98.9638 528.143 101.403 532.923C104.907 539.793 111.837 544.638 124.196 548.863C134.764 552.474 140.044 551.596 143.092 545.72C145.814 540.472 148.412 529.062 147.437 526.64C146.963 525.463 145.814 520 144.885 514.5C142.318 499.317 139.309 494.925 128.062 489.95C123.241 487.817 114.938 486.735 110.557 487.667ZM128.248 492.012C136.283 495.468 139.293 499.395 142.053 510.023C145.002 521.375 145.107 530.041 142.397 538.282C139.622 546.72 136.545 549.409 130.49 548.692C118.276 547.245 106.215 539.206 102.782 530.222C101.395 526.593 100.986 522.723 101.014 513.5C101.046 503.038 101.34 500.946 103.305 497.175C107.533 489.063 116.89 487.126 128.248 492.012ZM459.063 497.488C466.077 504.12 465.641 505.967 457.523 504.019C452.515 502.818 452.442 502.746 452.442 498.982C452.442 496.882 452.169 494.452 451.835 493.582C450.695 490.612 453.255 491.995 459.063 497.488ZM119.33 502.5C113.636 505.594 112.062 518.035 116.393 525.714C120.409 532.834 129.374 535.087 134.659 530.304C136.373 528.753 136.581 527.485 136.264 520.511C135.957 513.734 135.467 511.857 133.088 508.325C131.29 505.657 128.856 503.582 126.339 502.575C121.73 500.731 122.567 500.74 119.33 502.5ZM128.538 505.282C132.472 508.284 134.104 514.161 133.644 523.667C133.453 527.609 133.204 527.925 129.052 529.511C125.63 530.818 124.197 530.939 122.555 530.06C116.894 527.031 114.487 513.719 118.431 507.25C120.025 504.635 121.05 504.006 123.677 504.032C125.473 504.049 127.66 504.612 128.538 505.282ZM122.936 509.009C121.192 511.832 125.649 516.625 128.87 515.389C130.726 514.677 130.953 510.911 129.242 509.2C127.782 507.74 123.795 507.619 122.936 509.009ZM472.088 515.687C471.816 515.959 467.851 515.57 463.278 514.822C456.858 513.773 454.886 513.068 454.629 511.731C454.217 509.593 456.917 509.485 460.442 511.5C464.21 513.654 469.182 513.393 470.684 510.962C471.873 509.035 471.959 509.095 472.263 512.058C472.439 513.782 472.36 515.415 472.088 515.687ZM127.942 511C129.023 512.749 127.42 514.227 125.853 512.926C125.077 512.282 124.442 511.36 124.442 510.878C124.442 509.672 127.18 509.768 127.942 511ZM122.442 519C120.942 521.803 122.816 525 125.958 525C127.736 525 128.576 524.314 129.035 522.487C130.224 517.747 124.682 514.815 122.442 519ZM126.942 521C126.942 521.733 126.38 522.521 125.692 522.75C124.948 522.998 124.442 522.289 124.442 521C124.442 519.711 124.948 519.002 125.692 519.25C126.38 519.479 126.942 520.267 126.942 521ZM52.0848 533.008C42.9148 535.821 39.4418 547.259 39.4418 574.645V588.145L33.6918 587.879C30.5288 587.732 28.0338 587.956 28.1458 588.377C28.2588 588.797 30.9968 590.852 34.2318 592.942L40.1118 596.743L41.2878 609.622C42.1808 619.404 42.9238 623.127 44.3778 625.108C45.4298 626.542 47.3928 631.735 48.7388 636.648C51.8218 647.897 54.4138 652.98 60.2848 659.289C71.6118 671.46 83.1048 670.574 89.9808 657C93.0678 650.906 94.4178 643.802 94.4298 633.595C94.4418 623.704 94.4448 623.693 96.4718 625.527C98.0778 626.98 99.0718 627.166 101.222 626.415C104.03 625.434 105.541 622.062 106.926 613.683C107.534 610.01 107.678 609.89 110.75 610.503C112.506 610.853 116.795 612.058 120.281 613.181C124.499 614.539 126.954 614.888 127.618 614.224C128.282 613.56 128.253 613.001 127.529 612.554C126.931 612.184 126.442 610.82 126.442 609.523C126.442 605.415 125.378 604 122.291 604C120.675 604 116.511 603.286 113.037 602.414L106.722 600.827L105.489 595.321C103.909 588.258 101.367 585.588 96.9128 586.311L93.6088 586.847L92.9518 581.674C91.7348 572.081 89.2328 563.538 85.5888 556.532C77.8048 541.564 61.5038 530.119 52.0848 533.008ZM64.7318 537.142C70.6458 540.152 80.9668 551.287 84.4878 558.457C89.4558 568.575 90.5068 575.846 91.6598 608.036C92.5858 633.908 92.5198 638.539 91.1278 645.366C88.5838 657.839 82.4158 665.986 75.5078 665.996C69.1828 666.006 59.8208 658.583 55.5158 650.145C54.4088 647.976 51.8758 639.518 49.8868 631.35C47.8968 623.183 45.8928 615.6 45.4318 614.5C44.9718 613.4 44.0538 603.5 43.3908 592.5C42.4508 576.889 42.4518 569.762 43.3948 560.027C44.6968 546.567 46.0778 542.034 50.1818 537.75C53.4838 534.303 58.7218 534.084 64.7318 537.142ZM235.442 548.134C239.209 549.651 260.993 555.009 263.1 554.937C264.505 554.888 264.349 554.632 262.442 553.855C257.94 552.023 238.001 547.011 235.442 547.07L232.942 547.127L235.442 548.134ZM100.831 589.532C101.674 590.375 102.606 592.625 102.903 594.532C103.199 596.439 103.694 599.609 104.002 601.576C104.315 603.58 104.074 605.738 103.453 606.487C102.688 607.409 102.67 608.023 103.393 608.47C104.794 609.336 104.742 615 103.334 615C102.641 615 102.469 615.97 102.874 617.585C103.231 619.007 103.265 620.983 102.949 621.977C102.244 624.199 98.8678 625.218 97.5348 623.612C94.4848 619.937 93.2508 592.334 96.0128 589.571C97.9788 587.606 98.8978 587.599 100.831 589.532ZM38.8598 590.607C39.7298 590.941 40.4418 591.852 40.4418 592.633C40.4418 593.828 39.9698 593.807 37.4418 592.5C35.7918 591.647 34.4418 590.735 34.4418 590.474C34.4418 589.808 36.9758 589.884 38.8598 590.607ZM389.206 598.75C389.787 600.468 389.775 602.551 389.173 604.301C388.644 605.842 388.477 607.368 388.802 607.694C389.853 608.744 392.295 605.944 392.957 602.931C394.42 596.272 398.314 601.539 397.021 608.429C396.25 612.54 398.119 614.315 398.982 610.291C400.232 604.462 402.661 599 404.002 599C404.768 599 406.113 600.095 406.99 601.433C408.488 603.719 408.364 604.638 404.933 616.683C397.818 641.656 392.265 657 390.341 657C388.026 657 387.861 656.319 385.499 637C382.229 610.255 381.849 601.554 383.821 598.545C385.989 595.235 388.043 595.313 389.206 598.75ZM459.897 599.455C458.547 600.805 457.442 602.864 457.442 604.031C457.442 606.754 462.659 612 465.365 612C467.529 612 471.442 608.759 471.442 606.968C471.442 604.046 468.269 598.885 465.925 597.994C462.492 596.688 462.718 596.633 459.897 599.455ZM467.407 601.935C469.733 606.281 464.969 611.127 461.642 607.8C460.359 606.517 460.004 601.772 461.109 600.667C462.49 599.285 466.411 600.074 467.407 601.935ZM116.323 605.439C122.061 606.669 124.382 608.047 124.427 610.25C124.477 612.693 107.117 608.218 106.619 605.66C106.225 603.637 107.76 603.602 116.323 605.439ZM218.442 629.092C218.442 629.591 218.64 630 218.882 630C219.123 630 230.874 633.625 244.993 638.055C266.769 644.887 273.624 646.599 271.359 644.64C271.129 644.441 261.717 641.452 250.442 637.995C239.167 634.539 227.354 630.918 224.192 629.947C221.03 628.977 218.442 628.592 218.442 629.092ZM341.96 663.009C348.384 666.119 350.406 668.839 350.774 674.869C351.187 681.644 349.874 683.511 345.352 682.582C343.477 682.197 339.946 680.896 337.507 679.691C332.703 677.318 332.207 676.316 331.094 666.75L330.425 661H334.118C336.149 661 339.678 661.904 341.96 663.009Z" fill="#B8C4BB"/>
</svg>